<svg
  width="25"
  height="25"
  viewBox="0 0 48 48"
  fill="none"
  xmlns="http://www.w3.org/2000/svg"
>
  <path
    d="M40.5,5.5H7.5a2,2,0,0,0-2,2v33a2,2,0,0,0,2,2h33a2,2,0,0,0,2-2V7.5A2,2,0,0,0,40.5,5.5Z"
    stroke="#000"
    strokeLinecap="round"
    strokeLinejoin="round"
  />
  <path
    d="M25.5785,36.1424c-.041-4.7889,1.0624-8.7464,7.0814-8.4979C41.246,5.7628,6.2359,6.5969,15.5681,27.5138c2.83-.1756,7.5212,1.5092,6.72,9.1465"
    stroke="#000"
    strokeLinecap="round"
    strokeLinejoin="round"
  />
  <path
    d="M42.5,33.479l-37,5.8236"
    stroke="#000"
    strokeLinecap="round"
    strokeLinejoin="round"
  />
  <path
    d="M5.5,11.04l12.3448,2.29"
    stroke="#000"
    strokeLinecap="round"
    strokeLinejoin="round"
  />
  <path
    d="M32.3554,15.53,42.5,17.0114"
    stroke="#000"
    strokeLinecap="round"
    strokeLinejoin="round"
  />
</svg>